<svg width="1096" height="440" viewBox="0 0 1096 440" fill="none" xmlns="http://www.w3.org/2000/svg">
<g clip-path="url(#clip0_292_419)">
<g opacity="0.8">
<path d="M0 0.5H1096V-0.5H0V0.5ZM1096 35.5H0V36.5H1096V35.5Z" fill="#E2E8F0"/>
<path d="M182.167 0V36H183.167V0H182.167ZM91.8333 36V0H90.8333V36H91.8333Z" fill="#E2E8F0"/>
<path d="M273.5 0V36H274.5V0H273.5ZM183.167 36V0H182.167V36H183.167Z" fill="#E2E8F0"/>
<path d="M364.833 0V36H365.833V0H364.833ZM274.5 36V0H273.5V36H274.5Z" fill="#E2E8F0"/>
<path d="M456.167 0V36H457.167V0H456.167ZM365.833 36V0H364.833V36H365.833Z" fill="#E2E8F0"/>
<path d="M547.5 0V36H548.5V0H547.5ZM457.167 36V0H456.167V36H457.167Z" fill="#E2E8F0"/>
<path d="M638.833 0V36H639.833V0H638.833ZM548.5 36V0H547.5V36H548.5Z" fill="#E2E8F0"/>
<path d="M730.167 0V36H731.167V0H730.167ZM639.833 36V0H638.833V36H639.833Z" fill="#E2E8F0"/>
<path d="M821.5 0V36H822.5V0H821.5ZM731.167 36V0H730.167V36H731.167Z" fill="#E2E8F0"/>
<path d="M912.833 0V36H913.833V0H912.833ZM822.5 36V0H821.5V36H822.5Z" fill="#E2E8F0"/>
<path d="M1004.17 0V36H1005.17V0H1004.17ZM913.833 36V0H912.833V36H913.833Z" fill="#E2E8F0"/>
<path d="M0 36.5H1096V35.5H0V36.5ZM1096 71.5H0V72.5H1096V71.5Z" fill="#E2E8F0"/>
<path d="M182.167 36V72H183.167V36H182.167ZM91.8333 72V36H90.8333V72H91.8333Z" fill="#E2E8F0"/>
<path d="M273.5 36V72H274.5V36H273.5ZM183.167 72V36H182.167V72H183.167Z" fill="#E2E8F0"/>
<path d="M364.833 36V72H365.833V36H364.833ZM274.5 72V36H273.5V72H274.5Z" fill="#E2E8F0"/>
<path d="M456.167 36V72H457.167V36H456.167ZM365.833 72V36H364.833V72H365.833Z" fill="#E2E8F0"/>
<path d="M547.5 36V72H548.5V36H547.5ZM457.167 72V36H456.167V72H457.167Z" fill="#E2E8F0"/>
<path d="M638.833 36V72H639.833V36H638.833ZM548.5 72V36H547.5V72H548.5Z" fill="#E2E8F0"/>
<path d="M730.167 36V72H731.167V36H730.167ZM639.833 72V36H638.833V72H639.833Z" fill="#E2E8F0"/>
<path d="M821.5 36V72H822.5V36H821.5ZM731.167 72V36H730.167V72H731.167Z" fill="#E2E8F0"/>
<path d="M912.833 36V72H913.833V36H912.833ZM822.5 72V36H821.5V72H822.5Z" fill="#E2E8F0"/>
<path d="M1004.17 36V72H1005.17V36H1004.17ZM913.833 72V36H912.833V72H913.833Z" fill="#E2E8F0"/>
<path d="M0 72.5H1096V71.5H0V72.5ZM1096 107.5H0V108.5H1096V107.5Z" fill="#E2E8F0"/>
<path d="M182.167 72V108H183.167V72H182.167ZM91.8333 108V72H90.8333V108H91.8333Z" fill="#E2E8F0"/>
<path d="M273.5 72V108H274.5V72H273.5ZM183.167 108V72H182.167V108H183.167Z" fill="#E2E8F0"/>
<path d="M364.833 72V108H365.833V72H364.833ZM274.5 108V72H273.5V108H274.5Z" fill="#E2E8F0"/>
<path d="M456.167 72V108H457.167V72H456.167ZM365.833 108V72H364.833V108H365.833Z" fill="#E2E8F0"/>
<path d="M547.5 72V108H548.5V72H547.5ZM457.167 108V72H456.167V108H457.167Z" fill="#E2E8F0"/>
<path d="M638.833 72V108H639.833V72H638.833ZM548.5 108V72H547.5V108H548.5Z" fill="#E2E8F0"/>
<path d="M730.167 72V108H731.167V72H730.167ZM639.833 108V72H638.833V108H639.833Z" fill="#E2E8F0"/>
<path d="M821.5 72V108H822.5V72H821.5ZM731.167 108V72H730.167V108H731.167Z" fill="#E2E8F0"/>
<path d="M912.833 72V108H913.833V72H912.833ZM822.5 108V72H821.5V108H822.5Z" fill="#E2E8F0"/>
<path d="M1004.17 72V108H1005.17V72H1004.17ZM913.833 108V72H912.833V108H913.833Z" fill="#E2E8F0"/>
<path d="M0 108.5H1096V107.5H0V108.5ZM1096 143.5H0V144.5H1096V143.5Z" fill="#E2E8F0"/>
<path d="M182.167 108V144H183.167V108H182.167ZM91.8333 144V108H90.8333V144H91.8333Z" fill="#E2E8F0"/>
<path d="M273.5 108V144H274.5V108H273.5ZM183.167 144V108H182.167V144H183.167Z" fill="#E2E8F0"/>
<path d="M364.833 108V144H365.833V108H364.833ZM274.5 144V108H273.5V144H274.5Z" fill="#E2E8F0"/>
<path d="M456.167 108V144H457.167V108H456.167ZM365.833 144V108H364.833V144H365.833Z" fill="#E2E8F0"/>
<path d="M547.5 108V144H548.5V108H547.5ZM457.167 144V108H456.167V144H457.167Z" fill="#E2E8F0"/>
<path d="M638.833 108V144H639.833V108H638.833ZM548.5 144V108H547.5V144H548.5Z" fill="#E2E8F0"/>
<path d="M730.167 108V144H731.167V108H730.167ZM639.833 144V108H638.833V144H639.833Z" fill="#E2E8F0"/>
<path d="M821.5 108V144H822.5V108H821.5ZM731.167 144V108H730.167V144H731.167Z" fill="#E2E8F0"/>
<path d="M912.833 108V144H913.833V108H912.833ZM822.5 144V108H821.5V144H822.5Z" fill="#E2E8F0"/>
<path d="M1004.17 108V144H1005.17V108H1004.17ZM913.833 144V108H912.833V144H913.833Z" fill="#E2E8F0"/>
<path d="M0 144.5H1096V143.5H0V144.5ZM1096 179.5H0V180.5H1096V179.5Z" fill="#E2E8F0"/>
<path d="M182.167 144V180H183.167V144H182.167ZM91.8333 180V144H90.8333V180H91.8333Z" fill="#E2E8F0"/>
<path d="M273.5 144V180H274.5V144H273.5ZM183.167 180V144H182.167V180H183.167Z" fill="#E2E8F0"/>
<path d="M364.833 144V180H365.833V144H364.833ZM274.5 180V144H273.5V180H274.5Z" fill="#E2E8F0"/>
<path d="M456.167 144V180H457.167V144H456.167ZM365.833 180V144H364.833V180H365.833Z" fill="#E2E8F0"/>
<path d="M547.5 144V180H548.5V144H547.5ZM457.167 180V144H456.167V180H457.167Z" fill="#E2E8F0"/>
<path d="M638.833 144V180H639.833V144H638.833ZM548.5 180V144H547.5V180H548.5Z" fill="#E2E8F0"/>
<path d="M730.167 144V180H731.167V144H730.167ZM639.833 180V144H638.833V180H639.833Z" fill="#E2E8F0"/>
<path d="M821.5 144V180H822.5V144H821.5ZM731.167 180V144H730.167V180H731.167Z" fill="#E2E8F0"/>
<path d="M912.833 144V180H913.833V144H912.833ZM822.5 180V144H821.5V180H822.5Z" fill="#E2E8F0"/>
<path d="M1004.17 144V180H1005.17V144H1004.17ZM913.833 180V144H912.833V180H913.833Z" fill="#E2E8F0"/>
<path d="M0 180.5H1096V179.5H0V180.5ZM1096 215.5H0V216.5H1096V215.5Z" fill="#E2E8F0"/>
<path d="M182.167 180V216H183.167V180H182.167ZM91.8333 216V180H90.8333V216H91.8333Z" fill="#E2E8F0"/>
<path d="M273.5 180V216H274.5V180H273.5ZM183.167 216V180H182.167V216H183.167Z" fill="#E2E8F0"/>
<path d="M364.833 180V216H365.833V180H364.833ZM274.5 216V180H273.5V216H274.5Z" fill="#E2E8F0"/>
<path d="M456.167 180V216H457.167V180H456.167ZM365.833 216V180H364.833V216H365.833Z" fill="#E2E8F0"/>
<path d="M547.5 180V216H548.5V180H547.5ZM457.167 216V180H456.167V216H457.167Z" fill="#E2E8F0"/>
<path d="M638.833 180V216H639.833V180H638.833ZM548.5 216V180H547.5V216H548.5Z" fill="#E2E8F0"/>
<path d="M730.167 180V216H731.167V180H730.167ZM639.833 216V180H638.833V216H639.833Z" fill="#E2E8F0"/>
<path d="M821.5 180V216H822.5V180H821.5ZM731.167 216V180H730.167V216H731.167Z" fill="#E2E8F0"/>
<path d="M912.833 180V216H913.833V180H912.833ZM822.5 216V180H821.5V216H822.5Z" fill="#E2E8F0"/>
<path d="M1004.17 180V216H1005.17V180H1004.17ZM913.833 216V180H912.833V216H913.833Z" fill="#E2E8F0"/>
<path d="M0 216.5H1096V215.5H0V216.5ZM1096 251.5H0V252.5H1096V251.5Z" fill="#E2E8F0"/>
<path d="M182.167 216V252H183.167V216H182.167ZM91.8333 252V216H90.8333V252H91.8333Z" fill="#E2E8F0"/>
<path d="M273.5 216V252H274.5V216H273.5ZM183.167 252V216H182.167V252H183.167Z" fill="#E2E8F0"/>
<path d="M364.833 216V252H365.833V216H364.833ZM274.5 252V216H273.5V252H274.5Z" fill="#E2E8F0"/>
<path d="M456.167 216V252H457.167V216H456.167ZM365.833 252V216H364.833V252H365.833Z" fill="#E2E8F0"/>
<path d="M547.5 216V252H548.5V216H547.5ZM457.167 252V216H456.167V252H457.167Z" fill="#E2E8F0"/>
<path d="M638.833 216V252H639.833V216H638.833ZM548.5 252V216H547.5V252H548.5Z" fill="#E2E8F0"/>
<path d="M730.167 216V252H731.167V216H730.167ZM639.833 252V216H638.833V252H639.833Z" fill="#E2E8F0"/>
<path d="M821.5 216V252H822.5V216H821.5ZM731.167 252V216H730.167V252H731.167Z" fill="#E2E8F0"/>
<path d="M912.833 216V252H913.833V216H912.833ZM822.5 252V216H821.5V252H822.5Z" fill="#E2E8F0"/>
<path d="M1004.17 216V252H1005.17V216H1004.17ZM913.833 252V216H912.833V252H913.833Z" fill="#E2E8F0"/>
<path d="M0 252.5H1096V251.5H0V252.5ZM1096 287.5H0V288.5H1096V287.5Z" fill="#E2E8F0"/>
<path d="M182.167 252V288H183.167V252H182.167ZM91.8333 288V252H90.8333V288H91.8333Z" fill="#E2E8F0"/>
<path d="M273.5 252V288H274.5V252H273.5ZM183.167 288V252H182.167V288H183.167Z" fill="#E2E8F0"/>
<path d="M364.833 252V288H365.833V252H364.833ZM274.5 288V252H273.5V288H274.5Z" fill="#E2E8F0"/>
<path d="M456.167 252V288H457.167V252H456.167ZM365.833 288V252H364.833V288H365.833Z" fill="#E2E8F0"/>
<path d="M547.5 252V288H548.5V252H547.5ZM457.167 288V252H456.167V288H457.167Z" fill="#E2E8F0"/>
<path d="M638.833 252V288H639.833V252H638.833ZM548.5 288V252H547.5V288H548.5Z" fill="#E2E8F0"/>
<path d="M730.167 252V288H731.167V252H730.167ZM639.833 288V252H638.833V288H639.833Z" fill="#E2E8F0"/>
<path d="M821.5 252V288H822.5V252H821.5ZM731.167 288V252H730.167V288H731.167Z" fill="#E2E8F0"/>
<path d="M912.833 252V288H913.833V252H912.833ZM822.5 288V252H821.5V288H822.5Z" fill="#E2E8F0"/>
<path d="M1004.17 252V288H1005.17V252H1004.17ZM913.833 288V252H912.833V288H913.833Z" fill="#E2E8F0"/>
<path d="M0 288.5H1096V287.5H0V288.5ZM1096 323.5H0V324.5H1096V323.5Z" fill="#E2E8F0"/>
<path d="M182.167 288V324H183.167V288H182.167ZM91.8333 324V288H90.8333V324H91.8333Z" fill="#E2E8F0"/>
<path d="M273.5 288V324H274.5V288H273.5ZM183.167 324V288H182.167V324H183.167Z" fill="#E2E8F0"/>
<path d="M364.833 288V324H365.833V288H364.833ZM274.5 324V288H273.5V324H274.5Z" fill="#E2E8F0"/>
<path d="M456.167 288V324H457.167V288H456.167ZM365.833 324V288H364.833V324H365.833Z" fill="#E2E8F0"/>
<path d="M547.5 288V324H548.5V288H547.5ZM457.167 324V288H456.167V324H457.167Z" fill="#E2E8F0"/>
<path d="M638.833 288V324H639.833V288H638.833ZM548.5 324V288H547.5V324H548.5Z" fill="#E2E8F0"/>
<path d="M730.167 288V324H731.167V288H730.167ZM639.833 324V288H638.833V324H639.833Z" fill="#E2E8F0"/>
<path d="M821.5 288V324H822.5V288H821.5ZM731.167 324V288H730.167V324H731.167Z" fill="#E2E8F0"/>
<path d="M912.833 288V324H913.833V288H912.833ZM822.5 324V288H821.5V324H822.5Z" fill="#E2E8F0"/>
<path d="M1004.17 288V324H1005.17V288H1004.17ZM913.833 324V288H912.833V324H913.833Z" fill="#E2E8F0"/>
<path d="M0 324.5H1096V323.5H0V324.5ZM1096 359.5H0V360.5H1096V359.5Z" fill="#E2E8F0"/>
<path d="M182.167 324V360H183.167V324H182.167ZM91.8333 360V324H90.8333V360H91.8333Z" fill="#E2E8F0"/>
<path d="M273.5 324V360H274.5V324H273.5ZM183.167 360V324H182.167V360H183.167Z" fill="#E2E8F0"/>
<path d="M364.833 324V360H365.833V324H364.833ZM274.5 360V324H273.5V360H274.5Z" fill="#E2E8F0"/>
<path d="M456.167 324V360H457.167V324H456.167ZM365.833 360V324H364.833V360H365.833Z" fill="#E2E8F0"/>
<path d="M547.5 324V360H548.5V324H547.5ZM457.167 360V324H456.167V360H457.167Z" fill="#E2E8F0"/>
<path d="M638.833 324V360H639.833V324H638.833ZM548.5 360V324H547.5V360H548.5Z" fill="#E2E8F0"/>
<path d="M730.167 324V360H731.167V324H730.167ZM639.833 360V324H638.833V360H639.833Z" fill="#E2E8F0"/>
<path d="M821.5 324V360H822.5V324H821.5ZM731.167 360V324H730.167V360H731.167Z" fill="#E2E8F0"/>
<path d="M912.833 324V360H913.833V324H912.833ZM822.5 360V324H821.5V360H822.5Z" fill="#E2E8F0"/>
<path d="M1004.17 324V360H1005.17V324H1004.17ZM913.833 360V324H912.833V360H913.833Z" fill="#E2E8F0"/>
<path d="M0 360.5H1096V359.5H0V360.5ZM1096 395.5H0V396.5H1096V395.5Z" fill="#E2E8F0"/>
<path d="M182.167 360V396H183.167V360H182.167ZM91.8333 396V360H90.8333V396H91.8333Z" fill="#E2E8F0"/>
<path d="M273.5 360V396H274.5V360H273.5ZM183.167 396V360H182.167V396H183.167Z" fill="#E2E8F0"/>
<path d="M364.833 360V396H365.833V360H364.833ZM274.5 396V360H273.5V396H274.5Z" fill="#E2E8F0"/>
<path d="M456.167 360V396H457.167V360H456.167ZM365.833 396V360H364.833V396H365.833Z" fill="#E2E8F0"/>
<path d="M547.5 360V396H548.5V360H547.5ZM457.167 396V360H456.167V396H457.167Z" fill="#E2E8F0"/>
<path d="M638.833 360V396H639.833V360H638.833ZM548.5 396V360H547.5V396H548.5Z" fill="#E2E8F0"/>
<path d="M730.167 360V396H731.167V360H730.167ZM639.833 396V360H638.833V396H639.833Z" fill="#E2E8F0"/>
<path d="M821.5 360V396H822.5V360H821.5ZM731.167 396V360H730.167V396H731.167Z" fill="#E2E8F0"/>
<path d="M912.833 360V396H913.833V360H912.833ZM822.5 396V360H821.5V396H822.5Z" fill="#E2E8F0"/>
<path d="M1004.17 360V396H1005.17V360H1004.17ZM913.833 396V360H912.833V396H913.833Z" fill="#E2E8F0"/>
<path d="M0 396.5H1096V395.5H0V396.5ZM1096 431.5H0V432.5H1096V431.5Z" fill="#E2E8F0"/>
<path d="M182.167 396V432H183.167V396H182.167ZM91.8333 432V396H90.8333V432H91.8333Z" fill="#E2E8F0"/>
<path d="M273.5 396V432H274.5V396H273.5ZM183.167 432V396H182.167V432H183.167Z" fill="#E2E8F0"/>
<path d="M364.833 396V432H365.833V396H364.833ZM274.5 432V396H273.5V432H274.5Z" fill="#E2E8F0"/>
<path d="M456.167 396V432H457.167V396H456.167ZM365.833 432V396H364.833V432H365.833Z" fill="#E2E8F0"/>
<path d="M547.5 396V432H548.5V396H547.5ZM457.167 432V396H456.167V432H457.167Z" fill="#E2E8F0"/>
<path d="M638.833 396V432H639.833V396H638.833ZM548.5 432V396H547.5V432H548.5Z" fill="#E2E8F0"/>
<path d="M730.167 396V432H731.167V396H730.167ZM639.833 432V396H638.833V432H639.833Z" fill="#E2E8F0"/>
<path d="M821.5 396V432H822.5V396H821.5ZM731.167 432V396H730.167V432H731.167Z" fill="#E2E8F0"/>
<path d="M912.833 396V432H913.833V396H912.833ZM822.5 432V396H821.5V432H822.5Z" fill="#E2E8F0"/>
<path d="M1004.17 396V432H1005.17V396H1004.17ZM913.833 432V396H912.833V432H913.833Z" fill="#E2E8F0"/>
<path d="M0 432.5H1096V431.5H0V432.5ZM1096 467.5H0V468.5H1096V467.5Z" fill="#E2E8F0"/>
<path d="M182.167 432V468H183.167V432H182.167ZM91.8333 468V432H90.8333V468H91.8333Z" fill="#E2E8F0"/>
<path d="M273.5 432V468H274.5V432H273.5ZM183.167 468V432H182.167V468H183.167Z" fill="#E2E8F0"/>
<path d="M364.833 432V468H365.833V432H364.833ZM274.5 468V432H273.5V468H274.5Z" fill="#E2E8F0"/>
<path d="M456.167 432V468H457.167V432H456.167ZM365.833 468V432H364.833V468H365.833Z" fill="#E2E8F0"/>
<path d="M547.5 432V468H548.5V432H547.5ZM457.167 468V432H456.167V468H457.167Z" fill="#E2E8F0"/>
<path d="M638.833 432V468H639.833V432H638.833ZM548.5 468V432H547.5V468H548.5Z" fill="#E2E8F0"/>
<path d="M730.167 432V468H731.167V432H730.167ZM639.833 468V432H638.833V468H639.833Z" fill="#E2E8F0"/>
<path d="M821.5 432V468H822.5V432H821.5ZM731.167 468V432H730.167V468H731.167Z" fill="#E2E8F0"/>
<path d="M912.833 432V468H913.833V432H912.833ZM822.5 468V432H821.5V468H822.5Z" fill="#E2E8F0"/>
<path d="M1004.17 432V468H1005.17V432H1004.17ZM913.833 468V432H912.833V468H913.833Z" fill="#E2E8F0"/>
</g>
<g filter="url(#filter0_d_292_419)">
<rect x="116" y="68" width="864.193" height="472" rx="6" fill="white"/>
</g>
<g filter="url(#filter1_f_292_419)">
<circle cx="513" cy="263" r="295" fill="white"/>
</g>
</g>
<defs>
<filter id="filter0_d_292_419" x="62.7269" y="14.7269" width="970.74" height="578.546" filterUnits="userSpaceOnUse" color-interpolation-filters="sRGB">
<feFlood flood-opacity="0" result="BackgroundImageFix"/>
<feColorMatrix in="SourceAlpha" type="matrix" values="0 0 0 0 0 0 0 0 0 0 0 0 0 0 0 0 0 0 127 0" result="hardAlpha"/>
<feOffset/>
<feGaussianBlur stdDeviation="26.6366"/>
<feComposite in2="hardAlpha" operator="out"/>
<feColorMatrix type="matrix" values="0 0 0 0 0.796078 0 0 0 0 0.835294 0 0 0 0 0.882353 0 0 0 0.5 0"/>
<feBlend mode="normal" in2="BackgroundImageFix" result="effect1_dropShadow_292_419"/>
<feBlend mode="normal" in="SourceGraphic" in2="effect1_dropShadow_292_419" result="shape"/>
</filter>
<filter id="filter1_f_292_419" x="176" y="-74" width="674" height="674" filterUnits="userSpaceOnUse" color-interpolation-filters="sRGB">
<feFlood flood-opacity="0" result="BackgroundImageFix"/>
<feBlend mode="normal" in="SourceGraphic" in2="BackgroundImageFix" result="shape"/>
<feGaussianBlur stdDeviation="21" result="effect1_foregroundBlur_292_419"/>
</filter>
<clipPath id="clip0_292_419">
<rect width="1096" height="440" fill="white"/>
</clipPath>
</defs>
</svg>
